<svg xmlns="http://www.w3.org/2000/svg" viewBox="0 0 512 512">
  <rect width="512" height="512" fill="#080e1c" rx="80"/>
  <circle cx="80" cy="60" r="4" fill="#fde68a" opacity="0.7"/>
  <circle cx="140" cy="35" r="3" fill="#fde68a" opacity="0.6"/>
  <circle cx="60" cy="110" r="2.5" fill="#fde68a" opacity="0.5"/>
  <circle cx="380" cy="50" r="4" fill="#fde68a" opacity="0.6"/>
  <circle cx="440" cy="80" r="3" fill="#fde68a" opacity="0.7"/>
  <circle cx="420" cy="30" r="2.5" fill="#fde68a" opacity="0.5"/>
  <circle cx="310" cy="45" r="3" fill="#fde68a" opacity="0.5"/>
  <circle cx="370" cy="150" r="85" fill="#fde68a"/>
  <circle cx="400" cy="118" r="65" fill="#080e1c"/>
  <path d="M0 360 Q130 340 256 348 Q340 354 512 338" stroke="#3d2a10" stroke-width="30" fill="none" stroke-linecap="round"/>
  <path d="M140 348 Q135 310 128 278" stroke="#3d2a10" stroke-width="14" fill="none" stroke-linecap="round"/>
  <path d="M128 278 Q110 255 98 240" stroke="#3d2a10" stroke-width="10" fill="none" stroke-linecap="round"/>
  <path d="M128 278 Q142 255 152 238" stroke="#3d2a10" stroke-width="10" fill="none" stroke-linecap="round"/>
  <ellipse cx="256" cy="295" rx="68" ry="78" fill="#5a3a18"/>
  <path d="M192 280 Q178 310 184 340 Q210 328 256 332" fill="#4a2a10"/>
  <path d="M320 280 Q334 310 328 340 Q302 328 256 332" fill="#3a2008"/>
  <circle cx="256" cy="210" r="75" fill="#6a4a20"/>
  <polygon points="228,148 210,108 240,144" fill="#5a3a18"/>
  <polygon points="284,148 302,108 272,144" fill="#5a3a18"/>
  <ellipse cx="256" cy="218" rx="55" ry="50" fill="#8a6030" opacity="0.4"/>
  <circle cx="228" cy="205" r="34" fill="#fde68a"/>
  <circle cx="284" cy="205" r="34" fill="#fde68a"/>
  <circle cx="228" cy="205" r="22" fill="#080e1c"/>
  <circle cx="284" cy="205" r="22" fill="#080e1c"/>
  <circle cx="228" cy="205" r="12" fill="#1a3a60"/>
  <circle cx="284" cy="205" r="12" fill="#1a3a60"/>
  <circle cx="236" cy="197" r="7" fill="#fff" opacity="0.9"/>
  <circle cx="292" cy="197" r="7" fill="#fff" opacity="0.9"/>
  <polygon points="256,232 236,262 276,262" fill="#c8820a"/>
  <polygon points="256,232 238,255 274,255" fill="#e09820"/>
  <line x1="228" y1="372" x2="205" y2="398" stroke="#8b5a20" stroke-width="8" stroke-linecap="round"/>
  <line x1="240" y1="374" x2="232" y2="402" stroke="#8b5a20" stroke-width="8" stroke-linecap="round"/>
  <line x1="272" y1="374" x2="268" y2="402" stroke="#8b5a20" stroke-width="8" stroke-linecap="round"/>
  <line x1="284" y1="372" x2="307" y2="398" stroke="#8b5a20" stroke-width="8" stroke-linecap="round"/>
  <text x="256" y="460" text-anchor="middle" font-family="serif" font-size="58" font-weight="700" fill="#fde68a">കഥപ്പെട്ടി</text>
</svg>
